<svg version="1.1" xmlns="http://www.w3.org/2000/svg" xmlns:xlink="http://www.w3.org/1999/xlink" width="183.26666259765625" height="37.133331298828125"><defs></defs><g transform="translate(-92.69999694824219,27.683334350585938)"><rect fill="rgb(255,255,255)" stroke="none" x="0" y="0" width="183.26666259765625" height="37.133331298828125" fill-opacity="0" transform="translate(92.69999694824219,-27.683334350585938)"></rect><g transform="translate(92.61197916666667,18.55078125) rotate(0,0,0) translate(-92.61197916666667,-18.55078125) matrix(1,0,0,1,92.61197916666667,18.55078125)"><path fill="rgb(0,0,0)" fill-opacity="1" d="M26.45-18.06L26.75-17.87Q26.49-17.47 25.94-16.69Q25.39-15.90 24.60-14.93Q23.80-13.96 22.76-12.94Q21.71-11.92 20.47-11.09Q19.23-10.25 17.82-9.71Q16.42-9.18 14.89-9.18L14.89-9.18Q12.50-9.18 11.13-10.52Q9.76-11.87 9.71-14.57L9.71-14.57Q7.42-14.87 5.64-15.88Q3.85-16.89 2.62-18.45Q1.39-20.00 0.75-22.03Q0.10-24.06 0.10-26.43L0.10-26.43Q0.10-28.98 0.96-31.44Q1.82-33.90 3.33-36.11Q4.84-38.31 6.89-40.16Q8.94-42.01 11.33-43.36Q13.72-44.71 16.36-45.47Q18.99-46.23 21.67-46.23L21.67-46.23Q22.79-46.23 24.12-45.96Q25.44-45.69 26.59-45.05Q27.74-44.40 28.51-43.32Q29.28-42.25 29.28-40.63L29.28-40.63Q29.28-39.39 28.51-37.86Q27.74-36.34 26.12-34.96L26.12-34.96L25.93-35.14Q27.06-36.32 27.50-37.51Q27.95-38.71 27.95-40.09L27.95-40.09Q27.95-41.38 27.28-42.26Q26.61-43.14 25.63-43.68Q24.64-44.21 23.51-44.44Q22.37-44.66 21.41-44.66L21.41-44.66Q18.81-44.66 16.28-44.02Q13.74-43.37 11.48-42.20Q9.22-41.03 7.29-39.39Q5.35-37.75 3.96-35.75Q2.57-33.76 1.77-31.46Q0.97-29.17 0.97-26.71L0.97-26.71Q0.97-24.76 1.64-22.99Q2.31-21.22 3.50-19.79Q4.70-18.36 6.33-17.37Q7.96-16.37 9.85-16.00L9.85-16.00Q10.09-17.03 10.62-17.94Q11.14-18.86 11.86-19.55Q12.57-20.24 13.45-20.64Q14.33-21.04 15.27-21.04L15.27-21.04Q16.30-21.04 16.99-20.48Q17.68-19.93 17.68-18.74L17.68-18.74Q17.68-17.59 17.12-16.77Q16.56-15.95 15.68-15.43Q14.80-14.92 13.74-14.67Q12.69-14.43 11.68-14.43L11.68-14.43Q11.38-14.43 11.10-14.43Q10.82-14.43 10.56-14.47L10.56-14.47Q10.63-13.63 11.03-12.94Q11.42-12.25 12.05-11.77Q12.67-11.29 13.46-11.03Q14.26-10.77 15.13-10.77L15.13-10.77Q18.24-10.77 21.15-12.62Q24.06-14.47 26.45-18.06L26.45-18.06ZM15.17-19.79L15.17-19.79Q14.19-19.79 13.42-19.49Q12.64-19.18 12.08-18.66Q11.52-18.13 11.17-17.41Q10.82-16.70 10.67-15.86L10.67-15.86Q11.00-15.81 11.32-15.81Q11.64-15.81 11.96-15.81L11.96-15.81Q12.76-15.81 13.65-15.96Q14.54-16.11 15.27-16.45Q15.99-16.79 16.48-17.30Q16.96-17.80 16.96-18.50L16.96-18.50Q16.96-18.86 16.79-19.09Q16.63-19.32 16.37-19.49Q16.11-19.65 15.80-19.72Q15.48-19.79 15.17-19.79ZM32.40-22.44L32.40-22.44Q32.71-22.37 32.71-22.04L32.71-22.04Q32.71-21.95 32.65-21.80Q32.59-21.64 32.51-21.49Q32.42-21.34 32.33-21.23Q32.24-21.13 32.17-21.13L32.17-21.13Q32.05-21.13 31.89-21.21Q31.72-21.29 31.42-21.40Q31.11-21.50 30.62-21.59Q30.13-21.67 29.33-21.67L29.33-21.67Q28.21-21.67 27.46-21.25Q26.71-20.82 26.71-20.07L26.71-20.07Q26.71-19.54 27.16-19.17Q27.62-18.81 28.24-18.60Q28.86-18.39 29.51-18.29Q30.15-18.20 30.50-18.20L30.50-18.20Q30.76-18.20 30.84-18.12Q30.92-18.04 30.92-17.96L30.92-17.96Q30.92-17.78 30.77-17.74Q30.62-17.71 30.39-17.64L30.39-17.64Q29.78-17.43 29.14-17.11Q28.51-16.79 27.98-16.36Q27.46-15.93 27.13-15.39Q26.80-14.85 26.80-14.21L26.80-14.21Q26.80-13.16 27.65-12.47Q28.51-11.78 30.06-11.78L30.06-11.78Q31.82-11.78 32.99-12.30Q34.16-12.83 34.92-13.54Q35.68-14.24 36.10-14.95Q36.53-15.67 36.74-16.04L36.74-16.04L36.88-15.95Q36.48-14.80 35.86-13.82Q35.24-12.83 34.36-12.12Q33.48-11.40 32.31-10.99Q31.14-10.58 29.64-10.58L29.64-10.58Q28.72-10.58 27.95-10.80Q27.17-11.03 26.61-11.43Q26.05-11.82 25.74-12.41Q25.44-13.00 25.44-13.75L25.44-13.75Q25.44-14.61 25.84-15.25Q26.24-15.88 26.75-16.29Q27.27-16.70 27.77-16.92Q28.28-17.14 28.49-17.24L28.49-17.24Q27.76-17.36 27.20-17.64L27.20-17.64Q26.73-17.89 26.33-18.35Q25.93-18.81 25.93-19.61L25.93-19.61Q25.93-20.33 26.28-20.93Q26.64-21.53 27.23-21.93Q27.83-22.32 28.62-22.55Q29.40-22.77 30.29-22.77L30.29-22.77Q30.81-22.77 31.33-22.70Q31.86-22.63 32.40-22.44ZM44.73-16.04L44.87-15.95Q44.82-15.79 44.51-15.07Q44.19-14.36 43.64-13.55Q43.09-12.74 42.33-12.09Q41.57-11.45 40.60-11.45L40.60-11.45Q39.36-11.45 38.35-12.40Q37.35-13.35 36.63-15.09Q35.92-16.84 35.53-19.32Q35.14-21.81 35.14-24.88L35.14-24.88Q35.14-26.57 35.26-28.43Q35.38-30.29 35.64-32.10Q35.89-33.90 36.28-35.54Q36.67-37.18 37.21-38.43Q37.74-39.67 38.46-40.41Q39.17-41.14 40.04-41.14L40.04-41.14Q41.33-41.14 41.93-39.57Q42.53-38.00 42.53-34.72L42.53-34.72Q42.53-32.80 42.24-30.42Q41.96-28.04 41.28-25.56L41.28-25.56Q40.39-22.42 39.42-20.20Q38.45-17.99 37.77-16.68L37.77-16.68Q38.03-15.76 38.34-15.01Q38.66-14.26 39.06-13.71Q39.46-13.16 39.92-12.86Q40.39-12.55 40.96-12.55L40.96-12.55Q41.66-12.55 42.27-12.97Q42.88-13.39 43.36-13.96Q43.84-14.52 44.19-15.11Q44.54-15.69 44.73-16.04L44.73-16.04ZM36.57-26.52L36.57-26.52Q36.57-25.54 36.63-24.40Q36.69-23.26 36.81-22.09Q36.92-20.92 37.10-19.75Q37.28-18.57 37.53-17.50L37.53-17.50Q38.03-18.53 38.69-20.14Q39.36-21.76 39.98-23.79Q40.60-25.82 41.04-28.18Q41.47-30.55 41.47-33.08L41.47-33.08Q41.47-34.68 41.34-36Q41.21-37.32 40.96-38.27Q40.70-39.22 40.31-39.75Q39.92-40.28 39.41-40.28L39.41-40.28Q38.92-40.28 38.52-39.59Q38.12-38.89 37.80-37.77Q37.49-36.64 37.25-35.19Q37.02-33.74 36.87-32.21Q36.71-30.69 36.64-29.20Q36.57-27.71 36.57-26.52ZM52.46-16.04L52.60-15.95Q52.44-15.48 52.09-14.68Q51.74-13.89 51.14-13.13Q50.54-12.36 49.69-11.82Q48.83-11.29 47.71-11.33L47.71-11.33Q46.70-11.40 46.02-11.92Q45.34-12.43 44.92-13.50Q44.49-14.57 44.31-16.20Q44.12-17.82 44.12-20.12L44.12-20.12Q44.12-22.32 44.24-24.09Q44.35-25.86 44.54-27.22L44.54-27.22Q43.46-27.18 42.65-27.18Q41.85-27.18 41.52-27.18L41.52-27.18Q40.84-27.18 40.17-27.27Q39.50-27.36 38.92-27.60Q38.33-27.83 37.84-28.22Q37.35-28.61 37.02-29.19L37.02-29.19L37.11-29.40Q37.14-29.36 37.33-29.18Q37.53-29.00 38.05-28.82Q38.57-28.63 39.46-28.48Q40.35-28.32 41.75-28.32L41.75-28.32L44.68-28.32Q45.06-30.43 45.44-31.48Q45.83-32.52 45.97-32.80L45.97-32.80Q46.16-33.20 46.52-33.48Q46.89-33.76 47.14-33.76L47.14-33.76Q47.64-33.76 47.94-32.82Q48.24-31.89 48.24-29.92L48.24-29.92Q48.24-29.57 48.22-29.18Q48.20-28.79 48.20-28.39L48.20-28.39Q49.32-28.42 50.34-28.44Q51.36-28.46 52.17-28.49Q52.98-28.51 53.53-28.54Q54.08-28.56 54.24-28.58L54.24-28.58Q54.36-28.58 54.64-28.61Q54.92-28.63 55.02-28.63L55.02-28.63Q55.39-28.63 55.39-28.39L55.39-28.39Q55.39-28.07 55.19-27.80Q54.99-27.53 54.39-27.48L54.39-27.48Q54.27-27.46 53.69-27.45Q53.12-27.43 52.25-27.41Q51.39-27.39 50.31-27.35Q49.23-27.32 48.10-27.27L48.10-27.27Q47.87-25.28 47.26-22.92Q46.65-20.57 45.55-17.87L45.55-17.87Q45.64-16.32 45.82-15.29Q45.99-14.26 46.30-13.64Q46.60-13.02 47.06-12.76Q47.52-12.50 48.15-12.50L48.15-12.50Q48.83-12.50 49.42-12.76Q50.00-13.02 50.48-13.41Q50.96-13.79 51.33-14.25Q51.69-14.71 51.94-15.11Q52.18-15.50 52.31-15.76Q52.44-16.02 52.46-16.04L52.46-16.04ZM47.19-27.27L47.19-27.27Q46.79-27.27 46.42-27.25Q46.04-27.22 45.64-27.22L45.64-27.22Q45.57-25.89 45.54-24.48Q45.50-23.07 45.50-21.81L45.50-21.81L45.50-19.16Q46.18-21.29 46.62-23.31Q47.05-25.32 47.19-27.27ZM45.74-28.32L45.74-28.32Q46.11-28.32 46.50-28.36Q46.89-28.39 47.28-28.39L47.28-28.39L47.28-29.19Q47.28-30.36 47.21-31.07Q47.14-31.77 47.06-32.16Q46.98-32.54 46.87-32.67Q46.77-32.80 46.70-32.80L46.70-32.80Q46.51-32.80 46.37-32.45Q46.23-32.10 46.11-31.50Q45.99-30.90 45.90-30.08Q45.81-29.26 45.74-28.32ZM58.42-22.44L58.42-22.44Q58.72-22.37 58.72-22.04L58.72-22.04Q58.72-21.95 58.66-21.80Q58.60-21.64 58.52-21.49Q58.44-21.34 58.35-21.23Q58.25-21.13 58.18-21.13L58.18-21.13Q58.07-21.13 57.90-21.21Q57.74-21.29 57.43-21.40Q57.13-21.50 56.64-21.59Q56.14-21.67 55.35-21.67L55.35-21.67Q54.22-21.67 53.47-21.25Q52.72-20.82 52.72-20.07L52.72-20.07Q52.72-19.54 53.18-19.17Q53.64-18.81 54.26-18.60Q54.88-18.39 55.52-18.29Q56.17-18.20 56.52-18.20L56.52-18.20Q56.78-18.20 56.86-18.12Q56.94-18.04 56.94-17.96L56.94-17.96Q56.94-17.78 56.79-17.74Q56.64-17.71 56.40-17.64L56.40-17.64Q55.79-17.43 55.16-17.11Q54.53-16.79 54.00-16.36Q53.47-15.93 53.14-15.39Q52.82-14.85 52.82-14.21L52.82-14.21Q52.82-13.16 53.67-12.47Q54.53-11.78 56.07-11.78L56.07-11.78Q57.83-11.78 59.00-12.30Q60.17-12.83 60.94-13.54Q61.70-14.24 62.12-14.95Q62.54-15.67 62.75-16.04L62.75-16.04L62.89-15.95Q62.49-14.80 61.87-13.82Q61.25-12.83 60.37-12.12Q59.49-11.40 58.32-10.99Q57.15-10.58 55.65-10.58L55.65-10.58Q54.74-10.58 53.96-10.80Q53.19-11.03 52.63-11.43Q52.07-11.82 51.76-12.41Q51.46-13.00 51.46-13.75L51.46-13.75Q51.46-14.61 51.85-15.25Q52.25-15.88 52.77-16.29Q53.28-16.70 53.79-16.92Q54.29-17.14 54.50-17.24L54.50-17.24Q53.78-17.36 53.21-17.64L53.21-17.64Q52.74-17.89 52.35-18.35Q51.95-18.81 51.95-19.61L51.95-19.61Q51.95-20.33 52.30-20.93Q52.65-21.53 53.25-21.93Q53.85-22.32 54.63-22.55Q55.42-22.77 56.31-22.77L56.31-22.77Q56.82-22.77 57.35-22.70Q57.88-22.63 58.42-22.44ZM67.67-21.39L67.67-21.39Q68.03-21.39 68.40-21.29Q68.78-21.20 69.08-21.02Q69.39-20.85 69.58-20.59Q69.78-20.33 69.78-19.98L69.78-19.98Q69.78-19.23 69.33-18.67Q68.87-18.11 68.33-17.71L68.33-17.71Q67.70-17.26 66.90-16.91L66.90-16.91L66.76-17.14Q67.18-17.38 67.51-17.68L67.51-17.68Q67.79-17.94 68.03-18.33Q68.26-18.71 68.26-19.21L68.26-19.21Q68.26-19.68 67.84-20.07Q67.42-20.47 66.67-20.47L66.67-20.47Q65.92-20.47 65.32-20.09Q64.72-19.70 64.30-19.08Q63.88-18.46 63.64-17.67Q63.41-16.89 63.41-16.09L63.41-16.09Q63.41-15.41 63.61-14.79Q63.81-14.17 64.21-13.70Q64.60-13.23 65.24-12.96Q65.87-12.69 66.76-12.69L66.76-12.69Q67.63-12.69 68.28-12.91Q68.94-13.14 69.39-13.39L69.39-13.39Q69.90-13.70 70.28-14.12L70.28-14.12L70.46-13.98Q69.99-13.23 69.34-12.64L69.34-12.64Q68.75-12.15 67.89-11.74Q67.02-11.33 65.80-11.33L65.80-11.33Q65.14-11.33 64.45-11.55Q63.76-11.78 63.20-12.23Q62.64-12.69 62.27-13.41Q61.91-14.12 61.91-15.08L61.91-15.08Q61.91-16.32 62.34-17.47Q62.78-18.62 63.55-19.49Q64.32-20.36 65.38-20.87Q66.43-21.39 67.67-21.39ZM72.39-14.43L72.39-14.43Q72.39-15.04 72.46-16.41Q72.53-17.78 72.62-19.89Q72.71-22.00 72.78-24.81Q72.85-27.62 72.85-31.11L72.85-31.11Q72.85-32.82 72.84-34.41Q72.83-35.99 72.81-37.22Q72.78-38.45 72.77-39.21Q72.76-39.97 72.76-40.04L72.76-40.04Q72.76-40.23 72.82-40.37Q72.88-40.51 73.07-40.63L73.07-40.63Q73.21-40.70 73.40-40.83Q73.60-40.96 73.82-40.96L73.82-40.96Q74.07-40.96 74.21-40.82L74.21-40.82Q74.35-40.70 74.44-40.38Q74.52-40.07 74.57-39.30Q74.61-38.54 74.62-37.20Q74.64-35.85 74.64-33.71L74.64-33.71Q74.64-31.75 74.54-29.64Q74.45-27.53 74.32-25.49Q74.19-23.45 74.04-21.57Q73.89-19.70 73.76-18.20Q73.63-16.70 73.53-15.70Q73.44-14.71 73.44-14.43L73.44-14.43Q73.44-14.31 73.44-14.14Q73.44-13.98 73.46-13.83Q73.49-13.68 73.53-13.57Q73.58-13.46 73.67-13.46L73.67-13.46Q73.91-13.46 74.17-14.21Q74.42-14.96 74.82-16.23L74.82-16.23Q75.08-17.03 75.41-17.85Q75.74-18.67 76.10-19.34Q76.46-20.00 76.85-20.43Q77.24-20.85 77.61-20.85L77.61-20.85Q77.89-20.85 78.09-20.68Q78.29-20.52 78.43-20.27Q78.57-20.03 78.64-19.75Q78.71-19.46 78.76-19.21L78.76-19.21Q78.78-18.93 78.83-18.36Q78.88-17.80 78.92-17.07Q78.97-16.35 79.03-15.55Q79.09-14.75 79.16-14.03L79.16-14.03Q79.28-12.71 79.79-12.13Q80.31-11.54 81.13-11.54L81.13-11.54Q81.46-11.54 81.64-11.59Q81.83-11.64 81.99-11.64L81.99-11.64Q82.11-11.64 82.04-11.40L82.04-11.40Q81.99-11.31 81.64-11.09Q81.29-10.86 80.40-10.86L80.40-10.86Q79.65-10.86 79.15-11.11Q78.64-11.36 78.35-11.88Q78.06-12.41 77.90-13.27Q77.75-14.12 77.71-15.32L77.71-15.32Q77.66-16.00 77.62-16.73Q77.59-17.47 77.51-18.08Q77.42-18.69 77.28-19.08Q77.14-19.46 76.89-19.46L76.89-19.46Q76.67-19.46 76.42-18.98Q76.16-18.50 75.91-17.86Q75.67-17.21 75.46-16.57Q75.24-15.93 75.13-15.57L75.13-15.57Q75.03-15.29 74.85-14.64Q74.66-13.98 74.40-13.30Q74.14-12.62 73.84-12.11Q73.53-11.59 73.21-11.59L73.21-11.59Q72.92-11.59 72.76-11.91Q72.60-12.22 72.51-12.68Q72.43-13.14 72.41-13.62Q72.39-14.10 72.39-14.43ZM102.13-9.13L102.13-9.13Q101.71-9.13 101.34-9.26Q100.98-9.39 100.73-9.57Q100.49-9.76 100.35-9.98Q100.21-10.21 100.21-10.39L100.21-10.39Q100.21-10.56 100.31-10.79Q100.42-11.03 100.57-11.24Q100.72-11.45 100.87-11.59Q101.03-11.73 101.12-11.73L101.12-11.73Q101.24-11.73 101.26-11.65Q101.28-11.57 101.30-11.46Q101.31-11.36 101.33-11.24Q101.35-11.12 101.47-11.05L101.47-11.05Q101.73-10.91 102.09-10.82Q102.46-10.72 103.30-10.72L103.30-10.72Q104.38-10.72 105.33-11.06Q106.28-11.40 106.99-11.98Q107.71-12.55 108.12-13.32Q108.53-14.10 108.53-14.99L108.53-14.99Q108.53-16.21 107.76-16.93Q107.00-17.66 105.75-18.12Q104.49-18.57 102.89-18.86Q101.28-19.14 99.62-19.48Q97.96-19.82 96.35-20.34Q94.74-20.87 93.49-21.79Q92.24-22.70 91.48-24.13Q90.71-25.56 90.71-27.71L90.71-27.71Q90.71-30.13 91.70-32.32Q92.68-34.51 94.35-36.39Q96.01-38.26 98.17-39.76Q100.32-41.26 102.67-42.32Q105.01-43.37 107.39-43.95Q109.77-44.52 111.83-44.52L111.83-44.52Q115.16-44.52 116.90-43.34Q118.65-42.15 118.65-39.81L118.65-39.81Q118.65-38.75 118.16-37.79Q117.67-36.83 117.06-36.07Q116.45-35.31 115.90-34.80Q115.35-34.30 115.23-34.18L115.23-34.18L115.09-34.39Q115.11-34.42 115.51-34.84Q115.91-35.26 116.35-35.92Q116.80-36.57 117.17-37.37Q117.55-38.17 117.55-38.99L117.55-38.99Q117.55-40.89 115.98-41.81Q114.41-42.74 111.41-42.74L111.41-42.74Q108.32-42.74 105.64-42.01Q102.97-41.29 100.76-40.08Q98.54-38.87 96.82-37.30Q95.10-35.73 93.91-34.07Q92.73-32.40 92.11-30.76Q91.49-29.12 91.49-27.76L91.49-27.76Q91.49-25.93 92.26-24.77Q93.03-23.61 94.30-22.88Q95.57-22.14 97.17-21.74Q98.78-21.34 100.46-21.04Q102.15-20.73 103.76-20.41Q105.36-20.10 106.63-19.55Q107.89-19.00 108.67-18.09Q109.44-17.19 109.44-15.71L109.44-15.71Q109.44-14.36 109.01-13.35Q108.57-12.34 107.89-11.61Q107.21-10.89 106.38-10.41Q105.55-9.93 104.73-9.64Q103.91-9.36 103.22-9.25Q102.53-9.13 102.13-9.13ZM116.73-12.34L116.73-12.34Q117.29-12.34 117.83-12.59Q118.37-12.83 118.79-13.31Q119.21-13.79 119.46-14.50Q119.71-15.20 119.71-16.14L119.71-16.14Q119.71-16.91 119.52-17.60Q119.33-18.29 118.97-18.81Q118.60-19.32 118.03-19.63Q117.46-19.93 116.68-19.93L116.68-19.93Q116.14-19.93 115.60-19.73Q115.07-19.54 114.64-19.10Q114.22-18.67 113.96-18Q113.71-17.33 113.71-16.39L113.71-16.39Q113.71-15.64 113.89-14.93Q114.08-14.21 114.44-13.63Q114.81-13.04 115.38-12.69Q115.96-12.34 116.73-12.34ZM115.91-11.14L115.91-11.14Q114.36-11.14 113.38-12.16Q112.39-13.18 112.39-15.13L112.39-15.13Q112.39-16.44 112.89-17.55Q113.38-18.67 114.16-19.48Q114.95-20.29 115.91-20.73Q116.87-21.18 117.78-21.18L117.78-21.18Q119.26-21.18 120.15-20.17Q121.04-19.16 121.04-17.19L121.04-17.19Q121.04-15.88 120.58-14.78Q120.13-13.68 119.39-12.87Q118.65-12.06 117.74-11.60Q116.82-11.14 115.91-11.14ZM131.80-16.04L131.94-15.95Q131.89-15.79 131.58-15.07Q131.26-14.36 130.71-13.55Q130.16-12.74 129.40-12.09Q128.64-11.45 127.67-11.45L127.67-11.45Q126.43-11.45 125.42-12.40Q124.42-13.35 123.70-15.09Q122.99-16.84 122.60-19.32Q122.21-21.81 122.21-24.88L122.21-24.88Q122.21-26.57 122.33-28.43Q122.45-30.29 122.71-32.10Q122.96-33.90 123.35-35.54Q123.74-37.18 124.28-38.43Q124.82-39.67 125.53-40.41Q126.24-41.14 127.11-41.14L127.11-41.14Q128.40-41.14 129.00-39.57Q129.60-38.00 129.60-34.72L129.60-34.72Q129.60-32.80 129.32-30.42Q129.03-28.04 128.35-25.56L128.35-25.56Q127.46-22.42 126.49-20.20Q125.52-17.99 124.84-16.68L124.84-16.68Q125.10-15.76 125.41-15.01Q125.73-14.26 126.13-13.71Q126.53-13.16 126.99-12.86Q127.46-12.55 128.03-12.55L128.03-12.55Q128.73-12.55 129.34-12.97Q129.95-13.39 130.43-13.96Q130.91-14.52 131.26-15.11Q131.61-15.69 131.80-16.04L131.80-16.04ZM123.64-26.52L123.64-26.52Q123.64-25.54 123.70-24.40Q123.76-23.26 123.88-22.09Q123.99-20.92 124.17-19.75Q124.35-18.57 124.60-17.50L124.60-17.50Q125.10-18.53 125.76-20.14Q126.43-21.76 127.05-23.79Q127.67-25.82 128.11-28.18Q128.54-30.55 128.54-33.08L128.54-33.08Q128.54-34.68 128.41-36Q128.28-37.32 128.03-38.27Q127.77-39.22 127.38-39.75Q126.99-40.28 126.48-40.28L126.48-40.28Q125.99-40.28 125.59-39.59Q125.19-38.89 124.87-37.77Q124.56-36.64 124.32-35.19Q124.09-33.74 123.94-32.21Q123.78-30.69 123.71-29.20Q123.64-27.71 123.64-26.52ZM137.80-15.67L137.80-15.67Q137.80-15.83 137.81-16.07Q137.82-16.30 137.82-16.54Q137.82-16.77 137.83-16.95Q137.85-17.12 137.85-17.19L137.85-17.19Q137.85-17.36 137.79-17.40Q137.73-17.45 137.66-17.14L137.66-17.14Q137.61-17.05 137.47-16.61Q137.33-16.16 137.07-15.54Q136.82-14.92 136.45-14.20Q136.09-13.49 135.60-12.89Q135.10-12.29 134.49-11.89Q133.89-11.50 133.16-11.50L133.16-11.50Q132.06-11.50 131.60-12.09Q131.14-12.69 131.14-13.89L131.14-13.89Q131.14-14.24 131.21-14.91Q131.28-15.57 131.38-16.29Q131.47-17.00 131.54-17.65Q131.61-18.29 131.61-18.64L131.61-18.64Q131.61-19.65 131.10-19.65L131.10-19.65Q130.98-19.65 130.89-19.63Q130.79-19.61 130.74-19.61L130.74-19.61Q130.56-19.61 130.56-19.79L130.56-19.79Q130.56-19.86 130.76-20.04Q130.96-20.21 131.61-20.21L131.61-20.21Q132.36-20.21 132.65-19.65Q132.95-19.09 132.95-18.34L132.95-18.34Q132.95-18.01 132.89-17.41Q132.83-16.82 132.76-16.16Q132.69-15.50 132.63-14.91Q132.57-14.31 132.57-14.03L132.57-14.03Q132.57-13.14 132.87-12.77Q133.16-12.41 133.67-12.41L133.67-12.41Q134.17-12.41 134.65-12.80Q135.13-13.18 135.54-13.73Q135.95-14.29 136.25-14.87Q136.56-15.46 136.74-15.86L136.74-15.86Q136.93-16.37 137.07-16.98Q137.21-17.59 137.34-18.21Q137.47-18.83 137.57-19.39Q137.66-19.96 137.75-20.38L137.75-20.38Q137.80-20.59 138.20-20.67Q138.60-20.75 138.99-20.75L138.99-20.75Q139.21-20.75 139.21-20.61L139.21-20.61Q139.21-20.03 139.18-19.02Q139.16-18.01 139.16-16.96L139.16-16.96Q139.16-14.33 139.48-13.17Q139.79-12.01 140.73-12.01L140.73-12.01Q140.94-12.01 141.09-12.06Q141.24-12.11 141.36-12.11L141.36-12.11Q141.46-12.11 141.46-12.01L141.46-12.01Q141.46-12.08 141.46-11.99Q141.46-11.89 141.35-11.74Q141.24-11.59 140.95-11.46Q140.66-11.33 140.07-11.33L140.07-11.33Q139.44-11.33 139.03-11.55Q138.62-11.78 138.36-12.29Q138.10-12.81 137.98-13.64Q137.85-14.47 137.80-15.67ZM151.11-16.04L151.25-15.95Q151.09-15.48 150.74-14.68Q150.39-13.89 149.79-13.13Q149.19-12.36 148.33-11.82Q147.48-11.29 146.35-11.33L146.35-11.33Q145.35-11.40 144.67-11.92Q143.99-12.43 143.57-13.50Q143.14-14.57 142.96-16.20Q142.77-17.82 142.77-20.12L142.77-20.12Q142.77-22.32 142.89-24.09Q143.00-25.86 143.19-27.22L143.19-27.22Q142.11-27.18 141.30-27.18Q140.49-27.18 140.17-27.18L140.17-27.18Q139.49-27.18 138.82-27.27Q138.15-27.36 137.57-27.60Q136.98-27.83 136.49-28.22Q135.99-28.61 135.67-29.19L135.67-29.19L135.76-29.40Q135.78-29.36 135.98-29.18Q136.18-29.00 136.70-28.82Q137.21-28.63 138.10-28.48Q138.99-28.32 140.40-28.32L140.40-28.32L143.33-28.32Q143.71-30.43 144.09-31.48Q144.48-32.52 144.62-32.80L144.62-32.80Q144.81-33.20 145.17-33.48Q145.53-33.76 145.79-33.76L145.79-33.76Q146.28-33.76 146.59-32.82Q146.89-31.89 146.89-29.92L146.89-29.92Q146.89-29.57 146.87-29.18Q146.85-28.79 146.85-28.39L146.85-28.39Q147.97-28.42 148.99-28.44Q150.01-28.46 150.82-28.49Q151.63-28.51 152.18-28.54Q152.73-28.56 152.89-28.58L152.89-28.58Q153.01-28.58 153.29-28.61Q153.57-28.63 153.67-28.63L153.67-28.63Q154.04-28.63 154.04-28.39L154.04-28.39Q154.04-28.07 153.84-27.80Q153.64-27.53 153.03-27.48L153.03-27.48Q152.92-27.46 152.34-27.45Q151.77-27.43 150.90-27.41Q150.03-27.39 148.96-27.35Q147.88-27.32 146.75-27.27L146.75-27.27Q146.52-25.28 145.91-22.92Q145.30-20.57 144.20-17.87L144.20-17.87Q144.29-16.32 144.47-15.29Q144.64-14.26 144.95-13.64Q145.25-13.02 145.71-12.76Q146.17-12.50 146.80-12.50L146.80-12.50Q147.48-12.50 148.07-12.76Q148.65-13.02 149.13-13.41Q149.61-13.79 149.98-14.25Q150.34-14.71 150.58-15.11Q150.83-15.50 150.96-15.76Q151.09-16.02 151.11-16.04L151.11-16.04ZM145.84-27.27L145.84-27.27Q145.44-27.27 145.07-27.25Q144.69-27.22 144.29-27.22L144.29-27.22Q144.22-25.89 144.19-24.48Q144.15-23.07 144.15-21.81L144.15-21.81L144.15-19.16Q144.83-21.29 145.26-23.31Q145.70-25.32 145.84-27.27ZM144.39-28.32L144.39-28.32Q144.76-28.32 145.15-28.36Q145.53-28.39 145.93-28.39L145.93-28.39L145.93-29.19Q145.93-30.36 145.86-31.07Q145.79-31.77 145.71-32.16Q145.63-32.54 145.52-32.67Q145.42-32.80 145.35-32.80L145.35-32.80Q145.16-32.80 145.02-32.45Q144.88-32.10 144.76-31.50Q144.64-30.90 144.55-30.08Q144.46-29.26 144.39-28.32ZM151.46-20.61L151.46-20.61Q151.65-20.61 151.83-20.51Q152.00-20.40 152.13-20.29Q152.26-20.17 152.34-20.04Q152.42-19.91 152.42-19.89L152.42-19.89Q152.42-19.86 152.37-19.64Q152.31-19.42 152.23-18.90Q152.14-18.39 152.08-17.55Q152.03-16.72 152.03-15.48L152.03-15.48Q152.03-13.82 152.44-13.16Q152.85-12.50 153.43-12.50L153.43-12.50Q154.02-12.50 154.59-12.86Q155.17-13.21 155.68-13.77Q156.20-14.33 156.65-15.05Q157.11-15.76 157.46-16.49L157.46-16.49L157.60-16.39Q157.51-16.16 157.32-15.68Q157.14-15.20 156.85-14.64Q156.57-14.07 156.19-13.48Q155.80-12.88 155.30-12.40Q154.79-11.92 154.19-11.60Q153.60-11.29 152.89-11.29L152.89-11.29Q152.40-11.29 151.99-11.47Q151.58-11.66 151.26-12.16Q150.95-12.67 150.77-13.56Q150.60-14.45 150.60-15.86L150.60-15.86Q150.60-16.58 150.65-17.41Q150.71-18.25 150.82-18.96Q150.92-19.68 151.09-20.14Q151.25-20.61 151.46-20.61ZM152.03-26.43L152.03-26.43Q152.61-26.43 152.87-26.02Q153.13-25.61 153.13-25.02L153.13-25.02Q153.13-24.34 152.75-23.96Q152.38-23.59 151.84-23.59L151.84-23.59Q151.44-23.59 151.07-23.89Q150.69-24.20 150.69-24.88L150.69-24.88Q150.69-25.63 151.07-26.03Q151.44-26.43 152.03-26.43ZM160.77-12.34L160.77-12.34Q161.33-12.34 161.87-12.59Q162.41-12.83 162.83-13.31Q163.25-13.79 163.50-14.50Q163.74-15.20 163.74-16.14L163.74-16.14Q163.74-16.91 163.56-17.60Q163.37-18.29 163.01-18.81Q162.64-19.32 162.07-19.63Q161.49-19.93 160.72-19.93L160.72-19.93Q160.18-19.93 159.64-19.73Q159.10-19.54 158.68-19.10Q158.26-18.67 158.00-18Q157.74-17.33 157.74-16.39L157.74-16.39Q157.74-15.64 157.93-14.93Q158.12-14.21 158.48-13.63Q158.85-13.04 159.42-12.69Q159.99-12.34 160.77-12.34ZM159.95-11.14L159.95-11.14Q158.40-11.14 157.42-12.16Q156.43-13.18 156.43-15.13L156.43-15.13Q156.43-16.44 156.92-17.55Q157.42-18.67 158.20-19.48Q158.99-20.29 159.95-20.73Q160.91-21.18 161.82-21.18L161.82-21.18Q163.30-21.18 164.19-20.17Q165.08-19.16 165.08-17.19L165.08-17.19Q165.08-15.88 164.62-14.78Q164.17-13.68 163.43-12.87Q162.69-12.06 161.78-11.60Q160.86-11.14 159.95-11.14ZM168.55-21.32L168.55-21.32Q168.67-21.32 168.74-21.13Q168.81-20.94 168.84-20.68Q168.88-20.43 168.88-20.13Q168.88-19.84 168.88-19.61L168.88-19.61Q168.88-19.00 168.84-18.35Q168.81-17.71 168.77-17.11Q168.74-16.51 168.71-16.01Q168.69-15.50 168.69-15.18L168.69-15.18Q168.69-14.57 168.74-14.20Q168.78-13.84 168.97-13.84L168.97-13.84Q169.09-13.84 169.28-14.14Q169.46-14.45 169.69-14.88Q169.91-15.32 170.12-15.81Q170.33-16.30 170.52-16.68L170.52-16.68Q170.75-17.17 171.05-17.77Q171.34-18.36 171.67-18.89Q171.99-19.42 172.36-19.77Q172.72-20.12 173.12-20.12L173.12-20.12Q173.38-20.12 173.58-19.98Q173.78-19.84 173.92-19.62Q174.06-19.39 174.14-19.15Q174.22-18.90 174.27-18.69L174.27-18.69Q174.34-18.15 174.42-16.99Q174.50-15.83 174.64-14.52L174.64-14.52Q174.76-13.21 175.28-12.61Q175.79-12.01 176.61-12.01L176.61-12.01Q176.94-12.01 177.14-12.06Q177.34-12.11 177.48-12.11L177.48-12.11Q177.60-12.11 177.53-11.87L177.53-11.87Q177.50-11.82 177.42-11.74Q177.34-11.66 177.15-11.57Q176.96-11.47 176.65-11.40Q176.33-11.33 175.89-11.33L175.89-11.33Q175.14-11.33 174.64-11.58Q174.15-11.82 173.85-12.36Q173.54-12.90 173.40-13.76Q173.26-14.61 173.21-15.81L173.21-15.81Q173.17-16.37 173.13-16.90Q173.10-17.43 173.01-17.84Q172.93-18.25 172.79-18.49Q172.65-18.74 172.39-18.74L172.39-18.74Q172.18-18.74 171.89-18.32Q171.60-17.89 171.32-17.32Q171.03-16.75 170.79-16.14Q170.54-15.53 170.38-15.18L170.38-15.18Q169.86-14.07 169.52-13.37Q169.18-12.67 168.78-12.01L168.78-12.01Q168.67-11.82 168.54-11.71Q168.41-11.59 168.22-11.59L168.22-11.59Q167.94-11.59 167.78-12.06Q167.61-12.53 167.53-13.14Q167.45-13.75 167.42-14.37Q167.40-14.99 167.40-15.32L167.40-15.32Q167.40-15.69 167.41-16.23Q167.42-16.77 167.45-17.29Q167.47-17.80 167.48-18.22Q167.49-18.64 167.49-18.79L167.49-18.79Q167.49-18.93 167.48-19.17Q167.47-19.42 167.47-19.66Q167.47-19.91 167.46-20.11Q167.45-20.31 167.45-20.38L167.45-20.38Q167.45-20.57 167.55-20.70Q167.66-20.82 167.78-20.89L167.78-20.89Q167.89-20.96 168.15-21.14Q168.41-21.32 168.55-21.32ZM177.39-13.51L177.10-13.70Q177.90-14.96 178.53-16.29Q179.17-17.61 179.59-18.88L179.59-18.88Q179.03-19.68 178.64-20.51Q178.25-21.34 178.25-22.23L178.25-22.23Q178.25-23.10 178.42-23.80Q178.58-24.50 178.86-25.00Q179.14-25.49 179.49-25.76Q179.85-26.03 180.22-26.03L180.22-26.03Q180.74-26.03 181.05-25.51Q181.37-25.00 181.32-24.20L181.32-24.20Q181.28-23.26 181.08-22.18Q180.88-21.11 180.50-19.98L180.50-19.98Q180.97-19.44 181.48-18.91Q181.98-18.39 182.39-17.82Q182.80-17.26 183.07-16.62Q183.34-15.97 183.34-15.22L183.34-15.22Q183.34-14.19 182.95-13.32Q182.57-12.46 182.03-11.82Q181.49-11.19 180.90-10.84Q180.32-10.49 179.89-10.49L179.89-10.49Q179.17-10.49 178.78-10.86Q178.39-11.24 178.39-11.68L178.39-11.68Q178.39-12.04 178.51-12.39Q178.63-12.74 178.78-13.03Q178.93-13.32 179.08-13.51Q179.24-13.70 179.31-13.70L179.31-13.70Q179.42-13.70 179.46-13.62Q179.49-13.54 179.49-13.46L179.49-13.46Q179.49-13.35 179.47-13.14Q179.45-12.93 179.45-12.79L179.45-12.79Q179.45-12.39 179.72-12.13Q179.99-11.87 180.60-11.87L180.60-11.87Q180.85-11.87 181.18-11.99Q181.51-12.11 181.82-12.36Q182.12-12.62 182.32-13.01Q182.52-13.39 182.52-13.93L182.52-13.93Q182.52-14.43 182.28-14.96Q182.05-15.50 181.67-16.07Q181.30-16.63 180.84-17.21Q180.39-17.80 179.94-18.41L179.94-18.41Q179.40-17.07 178.76-15.82Q178.11-14.57 177.39-13.51L177.39-13.51ZM178.89-23.45L178.89-23.45Q178.89-22.56 179.21-21.87Q179.54-21.18 180.08-20.52L180.08-20.52Q180.27-21.25 180.34-21.91Q180.41-22.58 180.41-23.19L180.41-23.19Q180.41-24.83 179.68-24.83L179.68-24.83Q179.47-24.83 179.18-24.52Q178.89-24.20 178.89-23.45Z"></path></g></g></svg>